<?xml version="1.0" standalone="no"?>
<!DOCTYPE svg PUBLIC "-//W3C//DTD SVG 20010904//EN"
 "http://www.w3.org/TR/2001/REC-SVG-20010904/DTD/svg10.dtd">
<svg version="1.0" xmlns="http://www.w3.org/2000/svg"
 width="1024.000000pt" height="1024.000000pt" viewBox="0 0 1024.000000 1024.000000"
 preserveAspectRatio="xMidYMid meet">
<metadata>
Created by potrace 1.14, written by Peter Selinger 2001-2017
</metadata>
<g transform="translate(0.000000,1024.000000) scale(0.100000,-0.100000)"
fill="#000000" stroke="none">
<path d="M5066 9883 c-6 -7 -23 -11 -56 -16 -8 -1 -25 -8 -37 -15 -13 -7 -23
-10 -23 -6 0 3 -7 1 -15 -6 -8 -7 -15 -10 -15 -7 0 3 -27 -5 -59 -18 -33 -13
-62 -20 -65 -17 -3 3 -6 1 -6 -5 0 -6 -6 -10 -12 -10 -21 2 -98 -23 -98 -31 0
-4 -9 -9 -20 -10 -44 -4 -50 -6 -50 -15 0 -6 -3 -8 -6 -4 -4 3 -28 -2 -55 -12
-26 -10 -50 -16 -53 -13 -4 3 -6 1 -6 -5 0 -5 -7 -10 -15 -11 -8 -1 -22 -3
-30 -4 -8 -1 -15 -5 -15 -10 0 -5 -4 -7 -9 -4 -5 3 -14 -1 -21 -9 -6 -7 -18
-11 -25 -9 -8 3 -20 2 -27 -2 -7 -5 -17 -9 -23 -10 -5 -1 -34 -11 -62 -23 -29
-11 -53 -18 -53 -16 0 3 -13 -1 -30 -10 -16 -9 -30 -13 -30 -10 0 3 -17 -3
-39 -14 -21 -11 -41 -18 -44 -15 -3 3 -13 1 -24 -5 -16 -10 -67 -31 -85 -36
-5 -2 -10 -4 -13 -5 -3 -1 -13 -3 -22 -4 -10 -1 -23 -4 -29 -8 -6 -4 -26 -10
-44 -13 -19 -3 -40 -11 -47 -17 -7 -6 -13 -8 -13 -4 0 4 -12 -2 -27 -11 -15
-10 -28 -17 -30 -15 -7 7 -73 -11 -73 -20 0 -6 -9 -8 -20 -5 -11 3 -20 1 -20
-4 0 -8 -78 -34 -92 -31 -5 1 -8 -3 -8 -8 0 -5 -3 -9 -7 -8 -14 3 -103 -24
-103 -32 0 -6 -7 -8 -50 -12 -11 -1 -20 -6 -20 -10 0 -4 -9 -8 -19 -8 -11 0
-41 -9 -67 -21 -27 -11 -70 -25 -96 -30 -32 -7 -46 -15 -41 -22 3 -7 3 -9 -1
-5 -4 3 -33 -3 -64 -14 -53 -18 -78 -25 -109 -32 -7 -1 -16 -5 -19 -9 -4 -4
-16 -7 -26 -7 -10 0 -18 -4 -18 -8 0 -4 -9 -9 -20 -10 -43 -4 -50 -6 -50 -12
0 -4 -18 -10 -40 -14 -22 -3 -40 -11 -40 -17 0 -6 -7 -9 -15 -5 -8 3 -15 0
-15 -6 0 -6 -3 -9 -6 -5 -3 3 -36 -5 -72 -18 -36 -13 -69 -22 -73 -19 -4 2 -9
0 -11 -4 -3 -9 -223 -85 -245 -85 -7 0 -13 -4 -13 -9 0 -4 -3 -7 -7 -6 -5 1
-24 -4 -43 -11 -19 -8 -39 -13 -43 -12 -4 1 -21 -6 -38 -15 -17 -8 -37 -13
-45 -10 -9 3 -12 1 -9 -4 3 -6 -3 -10 -14 -10 -11 0 -23 -5 -26 -10 -4 -6 -12
-10 -18 -9 -7 1 -25 -3 -40 -9 -16 -7 -33 -10 -38 -6 -5 3 -12 -1 -15 -9 -2
-7 -10 -14 -17 -15 -29 -4 -53 -9 -67 -15 -58 -25 -124 -45 -132 -41 -4 3 -8
0 -8 -5 0 -6 -8 -11 -18 -11 -10 0 -22 -3 -26 -7 -3 -4 -14 -8 -24 -9 -15 -2
-110 -34 -152 -51 -19 -8 -19 -8 -52 -17 -16 -5 -28 -12 -28 -18 0 -5 -4 -7
-9 -4 -5 4 -22 1 -38 -5 -36 -15 -54 -20 -75 -22 -10 -1 -18 -5 -18 -9 0 -4
-9 -8 -19 -8 -11 0 -21 -4 -23 -9 -1 -6 -14 -12 -28 -14 -14 -2 -34 -8 -45
-12 -11 -4 -45 -18 -75 -30 -30 -12 -64 -26 -75 -30 -11 -5 -23 -9 -27 -10 -5
-2 -11 -4 -15 -5 -5 -1 -11 -2 -15 -1 -5 0 -8 -4 -8 -9 0 -6 -9 -10 -19 -10
-11 0 -23 -5 -26 -10 -4 -6 -10 -8 -15 -5 -5 3 -11 1 -15 -4 -3 -5 -14 -8 -25
-6 -11 2 -20 0 -20 -6 0 -5 -9 -9 -20 -9 -12 0 -20 -7 -20 -17 -4 -301 -2
-911 3 -920 4 -6 3 -14 -2 -17 -9 -6 -7 -43 4 -73 2 -7 0 -15 -4 -17 -8 -5 -5
-89 4 -113 2 -7 -1 -13 -7 -13 -6 0 -5 -6 3 -17 8 -9 10 -14 4 -11 -7 4 -10
-82 -10 -250 0 -160 4 -260 10 -264 7 -5 6 -8 0 -8 -6 0 -10 -16 -10 -35 0
-19 4 -35 8 -35 5 0 5 -5 2 -10 -10 -16 -11 -240 -1 -240 5 0 3 -7 -4 -15 -10
-12 -10 -15 0 -15 10 0 10 -3 0 -15 -7 -8 -9 -15 -4 -15 13 0 11 -263 -1 -272
-6 -5 -5 -11 4 -17 9 -6 10 -11 2 -15 -6 -4 -7 -15 -1 -30 5 -15 5 -27 -3 -35
-8 -8 -8 -11 2 -11 10 0 11 -3 2 -14 -9 -10 -9 -16 -1 -21 8 -5 8 -11 -1 -21
-9 -11 -9 -14 0 -14 7 0 9 -5 5 -12 -12 -19 -12 -48 -1 -48 5 0 4 -6 -2 -13
-6 -8 -8 -17 -5 -20 4 -4 7 -891 7 -1972 l1 -1965 53 -20 c30 -11 60 -20 68
-20 8 0 15 -5 15 -11 0 -6 6 -9 13 -6 8 3 39 -5 69 -17 30 -12 60 -20 66 -18
7 2 12 -1 12 -6 0 -5 8 -9 18 -9 9 1 28 -4 42 -10 34 -16 63 -26 75 -27 15 -2
87 -26 110 -37 12 -6 27 -11 35 -12 8 -2 20 -5 25 -8 6 -3 33 -12 60 -19 28
-7 55 -16 60 -20 6 -4 26 -11 45 -15 19 -4 46 -12 60 -18 28 -11 47 -16 73
-19 9 -1 17 -5 17 -9 0 -6 57 -21 64 -16 1 1 10 -4 19 -11 9 -8 21 -11 27 -7
5 3 10 1 10 -4 0 -6 4 -11 9 -11 5 0 22 -5 38 -12 15 -6 33 -10 39 -10 6 1 32
-9 59 -22 27 -14 52 -23 57 -20 4 3 8 0 8 -6 0 -6 4 -9 9 -6 5 3 57 -12 116
-34 59 -22 115 -40 125 -40 9 0 20 -3 24 -8 4 -4 11 -7 14 -8 4 0 21 -6 37
-13 17 -7 42 -15 58 -18 15 -3 27 -9 27 -14 0 -4 9 -6 20 -4 11 2 20 0 20 -4
0 -8 79 -36 93 -33 4 1 7 -3 7 -9 0 -6 9 -9 20 -6 11 3 20 1 20 -4 0 -5 8 -9
18 -9 10 0 27 -7 38 -15 12 -8 24 -12 26 -9 3 2 18 -2 34 -11 16 -8 36 -15 44
-15 9 0 27 -8 40 -17 14 -10 25 -16 25 -13 0 2 21 -2 48 -9 26 -8 47 -18 47
-23 0 -6 7 -8 15 -5 8 4 17 2 19 -2 3 -5 37 -17 76 -27 38 -10 70 -22 70 -27
0 -5 7 -7 15 -4 8 4 17 2 20 -3 4 -6 15 -10 26 -10 10 0 19 -5 19 -11 0 -5 5
-7 10 -4 6 4 17 1 25 -5 8 -7 15 -9 15 -5 0 4 6 3 13 -3 6 -5 28 -13 47 -17
19 -4 41 -12 49 -19 8 -6 16 -9 18 -7 2 1 16 -1 31 -7 15 -6 36 -14 47 -18 11
-4 26 -6 33 -5 6 1 12 -3 12 -9 0 -6 4 -9 9 -5 5 3 12 1 16 -5 3 -5 15 -10 26
-10 10 0 19 -5 19 -11 0 -5 4 -8 8 -5 8 4 105 -26 162 -51 8 -3 21 -5 28 -4 6
1 12 -3 12 -10 0 -6 7 -9 15 -5 8 3 15 1 15 -4 0 -6 11 -10 25 -10 14 0 25 -5
25 -11 0 -5 5 -7 10 -4 6 4 18 1 27 -7 9 -7 17 -12 17 -10 1 2 14 -1 29 -7 16
-6 35 -11 43 -11 8 0 14 -5 14 -10 0 -6 3 -9 8 -8 9 2 61 -11 87 -22 24 -10
58 -21 65 -21 3 -1 11 -5 18 -11 6 -6 12 -8 12 -5 0 4 20 -2 45 -13 25 -11 45
-17 45 -13 0 3 6 1 13 -4 6 -6 24 -13 40 -17 15 -3 27 -10 27 -15 0 -5 9 -7
20 -4 11 3 20 1 20 -4 0 -5 12 -10 27 -11 15 -1 32 -7 37 -12 6 -6 18 -10 28
-10 10 0 18 -5 18 -11 0 -5 5 -7 10 -4 6 4 18 1 27 -7 9 -7 19 -12 22 -11 7 3
70 -16 86 -26 6 -3 16 -7 23 -8 27 -6 39 -11 87 -32 28 -13 55 -24 60 -26 61
-15 105 -31 105 -37 0 -4 7 -8 15 -8 8 0 40 -11 71 -25 41 -18 60 -22 65 -14
4 6 11 9 17 5 6 -3 12 -1 14 5 4 11 83 39 121 42 9 1 17 4 17 8 0 4 18 10 40
14 22 4 40 10 40 15 0 5 8 7 17 6 10 -2 24 3 31 11 7 7 21 13 31 13 10 0 21 3
25 7 3 4 14 8 24 8 9 1 47 14 84 28 36 14 69 23 72 20 3 -4 6 -1 6 6 0 6 6 11
13 10 6 -1 25 3 40 9 16 7 37 12 48 12 11 0 18 4 15 8 -2 4 3 8 12 9 9 1 37 8
62 17 61 23 69 25 75 26 4 0 43 14 100 36 11 4 23 8 27 8 3 1 10 4 14 9 4 4
13 7 20 7 7 0 25 5 41 12 15 6 32 10 37 9 4 -1 14 3 20 9 7 5 16 7 19 3 4 -3
7 -1 7 5 0 7 6 12 14 12 8 0 27 5 43 12 15 6 37 12 49 13 11 1 27 6 35 11 8 4
21 9 29 11 8 1 16 6 18 11 2 6 12 8 22 5 12 -3 20 0 20 6 0 7 6 11 13 10 6 -1
25 3 40 9 16 7 32 12 37 12 5 0 21 5 37 12 32 13 39 15 72 22 13 3 35 13 48
21 14 9 27 14 30 11 4 -3 11 -2 17 3 13 10 124 44 129 39 2 -2 10 2 18 8 8 7
29 15 47 19 17 3 32 11 32 16 0 6 4 8 9 4 5 -3 12 -1 15 4 4 5 17 8 31 6 14
-1 25 1 25 6 0 4 14 10 30 14 17 4 30 11 30 16 0 6 4 8 9 5 4 -3 36 5 70 18
33 14 61 21 61 18 0 -4 4 -2 8 4 4 6 27 16 52 22 25 6 107 33 183 61 76 28
145 51 153 51 8 0 14 4 14 9 0 6 9 8 20 6 11 -2 20 0 20 4 0 4 21 13 48 20 56
14 59 15 95 29 16 7 30 12 32 12 2 0 16 5 32 12 15 6 33 12 38 13 38 5 105 29
105 37 0 5 5 6 10 3 6 -4 17 -2 24 4 8 7 18 11 22 10 5 -1 20 2 34 8 14 6 30
12 35 13 6 1 15 5 20 10 6 4 18 6 28 5 9 -2 17 0 17 4 0 7 89 35 103 33 4 -1
7 2 7 7 0 5 17 12 37 16 21 4 47 12 58 18 11 6 26 10 33 9 6 -2 12 2 12 8 0 5
3 9 8 8 4 -1 27 4 52 11 25 7 51 15 58 17 7 2 14 2 16 1 1 -1 9 3 17 10 8 6
31 14 52 18 20 4 37 10 37 14 0 4 6 8 13 8 18 1 41 7 47 13 6 6 88 30 108 32
6 1 12 5 12 10 0 5 6 8 13 7 12 -2 31 3 82 25 17 7 54 19 83 26 28 8 52 17 52
20 0 4 7 7 15 8 8 1 22 3 30 4 8 1 15 6 15 11 0 5 9 7 21 4 12 -3 22 0 26 9 3
8 9 11 14 8 5 -3 15 -2 22 3 6 4 22 9 34 11 12 1 34 9 50 17 15 8 35 15 44 15
9 0 19 3 23 7 4 5 11 8 14 8 4 1 17 4 30 9 l22 7 -2 3287 c-2 2623 -6 3286
-15 3285 -7 -2 -13 1 -13 5 0 5 -6 9 -12 10 -32 3 -53 7 -58 12 -3 3 -39 18
-80 34 -41 15 -89 34 -107 42 -17 8 -33 14 -36 14 -3 0 -18 5 -34 12 -15 6
-30 12 -33 12 -3 1 -11 5 -17 9 -7 5 -17 5 -23 2 -5 -3 -10 -2 -10 3 0 6 -16
13 -35 16 -19 4 -35 11 -35 16 0 4 -9 6 -20 3 -12 -3 -20 0 -20 6 0 7 -6 11
-12 10 -7 -1 -26 3 -41 9 -16 7 -52 19 -80 28 -29 9 -70 23 -92 31 -47 18 -73
25 -97 26 -10 1 -18 5 -18 9 0 4 -9 8 -20 8 -11 0 -20 5 -20 11 0 5 -5 7 -11
3 -6 -3 -14 -2 -18 4 -4 6 -22 14 -41 17 -19 3 -48 12 -65 20 -31 14 -119 45
-145 50 -8 2 -16 4 -17 5 -2 2 -6 3 -10 4 -5 1 -33 11 -63 21 -30 11 -59 20
-65 21 -5 0 -22 6 -36 12 -15 6 -46 16 -70 23 -24 7 -46 13 -49 14 -6 2 -57
22 -80 32 -8 3 -19 5 -24 4 -4 -1 -14 3 -22 10 -7 6 -18 8 -23 5 -5 -4 -12 -2
-16 4 -3 5 -15 10 -26 10 -10 0 -19 4 -19 9 0 6 -8 10 -17 10 -21 0 -38 4 -76
19 -15 7 -40 15 -55 18 -15 4 -31 10 -37 14 -5 4 -26 11 -45 15 -19 4 -46 12
-60 17 -14 5 -27 9 -30 10 -3 0 -20 6 -39 14 -18 8 -42 14 -52 14 -11 0 -19 5
-19 12 0 6 -3 9 -6 5 -3 -3 -29 3 -57 12 -29 10 -56 19 -62 21 -5 1 -21 7 -35
13 -14 5 -29 11 -35 13 -5 2 -31 10 -57 18 -25 8 -49 12 -52 9 -3 -4 -6 0 -6
7 0 7 -3 11 -6 8 -3 -3 -31 3 -62 14 -56 20 -95 30 -119 31 -7 0 -13 4 -13 8
0 4 -18 10 -40 14 -22 4 -42 11 -46 16 -3 5 -10 7 -15 4 -5 -4 -9 -1 -9 4 0 6
-9 11 -20 11 -12 0 -34 7 -50 15 -17 9 -30 13 -30 11 0 -3 -19 2 -42 10 -24 9
-47 17 -53 18 -5 1 -16 5 -22 9 -15 9 -50 19 -75 20 -10 1 -18 5 -18 9 0 4 -6
8 -14 8 -8 0 -27 5 -43 12 -34 14 -31 13 -68 23 -16 4 -57 17 -90 28 -33 11
-66 20 -72 20 -7 0 -13 4 -13 7 0 4 -15 11 -32 15 -37 9 -47 12 -50 15 -2 1
-10 3 -18 6 -8 2 -48 15 -89 29 -40 14 -80 25 -87 25 -8 0 -14 4 -14 10 0 5
-7 7 -15 4 -8 -4 -15 -2 -15 4 0 6 -9 8 -20 5 -11 -3 -20 -1 -20 4 0 5 -6 10
-12 11 -33 4 -55 10 -83 22 -16 7 -37 14 -45 16 -9 2 -34 11 -55 20 -22 9 -40
16 -40 15 0 -1 -29 9 -65 22 -36 14 -76 27 -90 28 -14 2 -27 7 -30 11 -3 4
-15 9 -25 11 -11 2 -29 8 -40 14 -11 6 -28 9 -37 8 -10 -2 -18 1 -18 6 0 6 -4
8 -9 4 -5 -3 -12 -1 -16 4 -3 6 -12 8 -19 5 -8 -3 -17 -1 -21 5 -7 12 -28 14
-39 4z"/>
</g>
</svg>
